<svg width="101" height="34" viewBox="0 0 101 34" fill="none" xmlns="http://www.w3.org/2000/svg">
<path d="M24.856 8.648C24.536 8.648 24.168 8.648 23.752 8.648C23.336 8.616 22.856 8.584 22.312 8.552C21.384 8.52 20.536 8.504 19.768 8.504C19 8.472 18.488 8.424 18.232 8.36V12.008C17.784 12.36 17.464 13.064 17.272 14.12C17.016 17.288 16.856 19.832 16.792 21.752C16.728 23.64 16.712 25.112 16.744 26.168C16.776 26.808 16.808 27.352 16.84 27.8C16.872 28.216 16.92 28.552 16.984 28.808L17.512 31.352L17.272 31.736L11.464 33.032H11.32C11.256 33.032 11.176 33.048 11.08 33.08C11.016 33.08 10.952 33.08 10.888 33.08L9.304 31.976C9.304 31.944 9.32 31.928 9.352 31.928C9.384 31.896 9.416 31.848 9.448 31.784C9.48 31.688 9.512 31.544 9.544 31.352C9.576 31.128 9.592 30.824 9.592 30.44C9.592 30.12 9.592 29.896 9.592 29.768C9.624 29.64 9.608 29.432 9.544 29.144C9.48 28.76 9.48 27.896 9.544 26.552C9.576 25.208 9.352 24.536 8.872 24.536C8.936 24.184 8.968 23.768 8.968 23.288C9 22.808 9.032 22.36 9.064 21.944C9.096 21.688 9.112 21.448 9.112 21.224C9.112 20.968 9.112 20.712 9.112 20.456C9.144 20.424 9.16 20.392 9.16 20.36C9.192 20.328 9.224 20.296 9.256 20.264L9.304 20.216C9.464 19.96 9.544 19.768 9.544 19.64C9.544 19.48 9.608 19.128 9.736 18.584V16.52C10.344 16.616 10.472 16.104 10.12 14.984C9.832 13.768 9.784 13.16 9.976 13.16C10.072 12.744 10.168 12.264 10.264 11.72C10.328 11.272 10.392 10.792 10.456 10.28C10.52 9.736 10.584 9.192 10.648 8.648L10.456 8.504C10.232 8.696 9.96 8.76 9.64 8.696C9.352 8.632 9.08 8.584 8.824 8.552C8.088 8.648 7.464 8.728 6.952 8.792C6.44 8.856 6.024 8.968 5.704 9.128C5.512 9.192 5.336 9.24 5.176 9.272C5.016 9.304 4.936 9.528 4.936 9.944L2.2 10.52L1.336 9.896C1.208 9.576 1.096 9.272 1 8.984C0.904 8.664 0.84 8.28 0.808 7.832L1.384 6.44C1.832 6.376 2.184 6.344 2.44 6.344C2.728 6.344 2.936 6.36 3.064 6.392C3.224 6.392 3.336 6.408 3.4 6.44C3.464 6.472 3.528 6.488 3.592 6.488C3.944 6.328 4.312 6.184 4.696 6.056C5.08 5.896 5.528 5.752 6.04 5.624C6.584 5.496 7.208 5.384 7.912 5.288C8.648 5.16 9.528 5.032 10.552 4.904L14.92 4.712L15.4 5.096C15.56 5.192 15.736 5.288 15.928 5.384C16.12 5.448 16.312 5.48 16.504 5.48C16.728 5.512 16.936 5.432 17.128 5.24C17.192 5.176 17.256 5.08 17.32 4.952C17.576 4.888 17.992 4.888 18.568 4.952C19.176 4.984 20.088 5.096 21.304 5.288C23.416 5.64 24.808 5.832 25.48 5.864L25.768 6.344V7.928L24.856 8.648ZM44.9031 17C44.9991 17.544 45.0471 18.024 45.0471 18.44C45.0471 18.824 45.0311 19.208 44.9991 19.592C44.9991 19.944 45.0151 20.296 45.0471 20.648C45.1111 20.968 45.2391 21.32 45.4311 21.704C45.3671 21.832 45.2071 22.088 44.9511 22.472C44.7271 22.824 44.5671 23.192 44.4711 23.576C44.4071 23.928 44.3591 24.2 44.3271 24.392C44.2951 24.584 44.2631 24.712 44.2311 24.776C44.3271 24.84 44.4071 24.968 44.4711 25.16C44.5031 25.32 44.4711 25.528 44.3751 25.784C44.2791 26.008 44.0871 26.328 43.7991 26.744C43.2231 27.512 42.9031 28.168 42.8391 28.712C42.7751 29.224 42.6471 29.624 42.4551 29.912C42.3911 29.976 42.1831 30.072 41.8311 30.2C41.5111 30.328 41.1271 30.488 40.6791 30.68C40.2311 30.84 39.7831 31.032 39.3351 31.256C38.8871 31.48 38.5351 31.704 38.2791 31.928C37.7351 32.024 37.2551 32.152 36.8391 32.312C36.4231 32.472 35.9111 32.584 35.3031 32.648C34.7271 32.776 34.1351 32.936 33.5271 33.128C32.9191 33.288 32.5831 33.368 32.5191 33.368C31.0151 33.368 30.1191 33.416 29.8311 33.512C29.5751 33.608 29.2711 33.656 28.9191 33.656L24.5511 32.072L22.5351 29.144C22.5351 28.376 22.5031 27.736 22.4391 27.224C22.4071 26.68 22.3591 26.216 22.2951 25.832C22.2311 25.416 22.1831 25.032 22.1511 24.68C22.1191 24.328 22.1191 23.928 22.1511 23.48C22.2471 23.384 22.3911 23.16 22.5831 22.808C22.7751 22.424 22.9671 21.992 23.1591 21.512C23.3831 21.032 23.5911 20.536 23.7831 20.024C24.0071 19.512 24.1671 19.08 24.2631 18.728C24.5191 17.992 24.7111 17.352 24.8391 16.808C24.9671 16.232 25.0631 15.72 25.1271 15.272C25.3831 15.112 25.5911 14.936 25.7511 14.744C25.9111 14.552 26.0711 14.392 26.2311 14.264C27.5431 13.496 28.6791 12.872 29.6391 12.392C30.5991 11.88 31.4951 11.56 32.3271 11.432L33.7671 11.336C33.9271 11.368 34.0711 11.4 34.1991 11.432C34.3271 11.464 34.4551 11.496 34.5831 11.528C34.7751 11.592 34.9511 11.64 35.1111 11.672C35.2711 11.672 35.3671 11.672 35.3991 11.672L36.3591 13.16C36.3591 13.448 36.2951 13.688 36.1671 13.88C36.0391 14.04 36.1671 14.152 36.5511 14.216C36.9671 14.312 37.1911 14.376 37.2231 14.408V14.456C37.7351 14.456 38.2631 14.344 38.8071 14.12C39.3511 13.864 39.8951 13.736 40.4391 13.736C40.5671 13.736 40.7911 13.8 41.1111 13.928C41.4311 14.024 41.7671 14.152 42.1191 14.312C42.4711 14.472 42.7911 14.632 43.0791 14.792C43.3991 14.92 43.6231 15.016 43.7511 15.08C43.6871 15.56 43.7031 15.896 43.7991 16.088C43.8951 16.28 44.0231 16.424 44.1831 16.52C44.3431 16.584 44.4871 16.648 44.6151 16.712C44.7751 16.744 44.8711 16.84 44.9031 17ZM36.3111 29C36.7911 28.68 37.2551 27.656 37.7031 25.928C37.9591 25 38.1671 24.312 38.3271 23.864C38.5191 23.384 38.6151 22.936 38.6151 22.52C38.6151 21.816 38.3751 20.984 37.8951 20.024C37.6391 19.512 37.4471 19.08 37.3191 18.728C37.1911 18.376 37.0951 18.024 37.0311 17.672C36.7751 17.544 36.6311 17.352 36.5991 17.096C36.5991 16.808 36.4711 16.52 36.2151 16.232C35.8951 15.976 35.7031 15.88 35.6391 15.944C35.5751 16.008 35.5111 16.04 35.4471 16.04H35.0151C34.7591 16.04 34.4071 16.088 33.9591 16.184C33.5431 16.28 33.2071 16.504 32.9511 16.856C32.5671 17.272 32.2311 17.608 31.9431 17.864C31.6871 18.088 31.5431 18.232 31.5111 18.296C31.1911 18.904 30.9031 19.432 30.6471 19.88C30.3911 20.296 30.1831 20.632 30.0231 20.888L29.5911 21.896C29.3991 22.376 29.3191 23.016 29.3511 23.816C29.4151 23.944 29.4791 24.232 29.5431 24.68C29.6071 25.096 29.4151 25.544 28.9671 26.024C28.8711 26.12 28.7751 26.312 28.6791 26.6C28.5831 26.856 28.5191 27.16 28.4871 27.512C28.4551 27.864 28.4871 28.216 28.5831 28.568C28.7111 28.92 28.9511 29.224 29.3031 29.48C29.7511 29.8 30.2151 30.12 30.6951 30.44C31.1751 30.728 31.4791 30.872 31.6071 30.872H32.1351C32.3271 30.872 32.5031 30.92 32.6631 31.016L36.3111 29ZM68.4291 0.631999L72.7971 0.919998C73.4051 0.919998 73.6451 1.256 73.5171 1.928C73.2611 2.44 73.0691 3.112 72.9411 3.944C72.8131 4.744 72.7171 5.624 72.6531 6.584C72.2691 9.432 71.9811 11.928 71.7891 14.072C71.6291 16.184 71.5011 17.976 71.4051 19.448C71.3091 20.92 71.2131 22.088 71.1171 22.952C71.0531 23.816 70.9411 24.408 70.7811 24.728L71.1651 28.76L70.9731 29.528C71.0691 29.784 71.1651 30.04 71.2611 30.296C71.3891 30.52 71.4851 30.712 71.5491 30.872C71.6771 31.128 71.7571 31.304 71.7891 31.4C71.7891 31.56 71.6611 31.736 71.4051 31.928C71.1811 32.12 70.8931 32.312 70.5411 32.504C70.1891 32.696 69.8051 32.888 69.3891 33.08C68.9731 33.24 68.5891 33.384 68.2371 33.512C67.9491 33.48 67.7251 33.432 67.5651 33.368C67.4371 33.304 67.3251 33.208 67.2291 33.08C67.1331 32.952 67.0371 32.776 66.9411 32.552C66.8771 32.328 66.7491 32.04 66.5571 31.688C66.2371 31.56 65.8051 31.528 65.2611 31.592C64.7171 31.624 64.2691 31.8 63.9171 32.12C63.7891 32.472 63.6611 32.712 63.5331 32.84C63.4371 32.968 63.3251 33.08 63.1971 33.176C63.1011 33.24 62.9731 33.304 62.8131 33.368C62.6531 33.432 62.4611 33.56 62.2371 33.752C61.4051 33.816 60.7171 33.848 60.1731 33.848C59.6611 33.848 59.1971 33.816 58.7811 33.752C58.3971 33.656 58.0291 33.544 57.6771 33.416C57.3251 33.256 56.9251 33.048 56.4771 32.792C55.8051 32.696 55.2291 32.552 54.7491 32.36C54.3011 32.168 53.9171 31.96 53.5971 31.736C53.3091 31.48 53.0531 31.224 52.8291 30.968C52.6051 30.68 52.3971 30.424 52.2051 30.2L50.1411 25.592L50.4771 21.608C50.7331 21.448 50.9251 21.336 51.0531 21.272C51.2131 21.208 51.3411 21.144 51.4371 21.08C51.5331 21.016 51.6131 20.936 51.6771 20.84C51.7731 20.712 51.8851 20.504 52.0131 20.216C52.1091 20.184 52.1731 20.088 52.2051 19.928C52.2691 19.768 52.2851 19.592 52.2531 19.4C52.2531 19.208 52.2211 19.016 52.1571 18.824C52.0931 18.632 51.9971 18.488 51.8691 18.392L53.5011 15.896C53.5971 15.896 53.7731 15.816 54.0291 15.656C54.2851 15.464 54.5891 15.256 54.9411 15.032C55.2931 14.776 55.6771 14.536 56.0931 14.312C56.5411 14.088 57.0051 13.928 57.4851 13.832C58.3811 13.576 59.0691 13.448 59.5491 13.448C60.0291 13.416 60.3171 13.384 60.4131 13.352C60.6051 13.48 60.8291 13.576 61.0851 13.64C61.3411 13.704 61.5811 13.768 61.8051 13.832C62.0611 13.864 62.2691 13.896 62.4291 13.928C62.6211 13.928 62.7331 13.928 62.7651 13.928C62.7971 13.928 62.8451 14.024 62.9091 14.216C62.9731 14.408 63.0531 14.648 63.1491 14.936C63.2451 15.224 63.3731 15.512 63.5331 15.8C63.6931 16.088 63.8851 16.328 64.1091 16.52L64.9731 16.808L65.7411 16.52L65.9331 14.168L65.6931 12.248C65.8531 11.832 65.9491 11.48 65.9811 11.192C66.0451 10.872 66.0611 10.552 66.0291 10.232C66.0291 9.912 66.0131 9.592 65.9811 9.272C65.9491 8.92 65.9331 8.52 65.9331 8.072C66.3811 7.56 66.6371 7.064 66.7011 6.584C66.7971 6.104 66.5731 5.608 66.0291 5.096L65.9811 3.032L67.2771 0.823999L68.4291 0.631999ZM63.4851 30.488L64.8771 28.904C64.7811 28.776 64.8131 28.536 64.9731 28.184C65.1331 27.832 65.1811 27.432 65.1171 26.984C65.0851 26.76 65.0691 26.264 65.0691 25.496C65.1011 24.728 65.1331 23.928 65.1651 23.096C65.1971 22.264 65.2291 21.528 65.2611 20.888C65.2931 20.216 64.9891 19.544 64.3491 18.872L61.3731 17.624L58.5891 18.392L57.2931 19.832C56.9731 20.344 56.7171 20.808 56.5251 21.224C56.3651 21.64 56.2531 22.072 56.1891 22.52C56.1251 22.936 56.1091 23.368 56.1411 23.816C56.1731 24.264 56.2371 24.76 56.3331 25.304C56.2691 25.944 56.3651 26.456 56.6211 26.84C56.8771 27.224 57.2611 27.544 57.7731 27.8L59.5011 29.672L60.9411 30.344C61.1651 30.44 61.3411 30.536 61.4691 30.632C61.6291 30.696 61.7731 30.744 61.9011 30.776C62.0611 30.776 62.2531 30.76 62.4771 30.728C62.7331 30.696 63.0691 30.616 63.4851 30.488ZM99.7469 17C99.8429 17.544 99.8909 18.024 99.8909 18.44C99.8909 18.824 99.8749 19.208 99.8429 19.592C99.8429 19.944 99.8589 20.296 99.8909 20.648C99.9549 20.968 100.083 21.32 100.275 21.704C100.211 21.832 100.051 22.088 99.7949 22.472C99.5709 22.824 99.4109 23.192 99.3149 23.576C99.2509 23.928 99.2029 24.2 99.1709 24.392C99.1389 24.584 99.1069 24.712 99.0749 24.776C99.1709 24.84 99.2509 24.968 99.3149 25.16C99.3469 25.32 99.3149 25.528 99.2189 25.784C99.1229 26.008 98.9309 26.328 98.6429 26.744C98.0669 27.512 97.7469 28.168 97.6829 28.712C97.6189 29.224 97.4909 29.624 97.2989 29.912C97.2349 29.976 97.0269 30.072 96.6749 30.2C96.3549 30.328 95.9709 30.488 95.5229 30.68C95.0749 30.84 94.6269 31.032 94.1789 31.256C93.7309 31.48 93.3789 31.704 93.1229 31.928C92.5789 32.024 92.0989 32.152 91.6829 32.312C91.2669 32.472 90.7549 32.584 90.1469 32.648C89.5709 32.776 88.9789 32.936 88.3709 33.128C87.7629 33.288 87.4269 33.368 87.3629 33.368C85.8589 33.368 84.9629 33.416 84.6749 33.512C84.4189 33.608 84.1149 33.656 83.7629 33.656L79.3949 32.072L77.3789 29.144C77.3789 28.376 77.3469 27.736 77.2829 27.224C77.2509 26.68 77.2029 26.216 77.1389 25.832C77.0749 25.416 77.0269 25.032 76.9949 24.68C76.9629 24.328 76.9629 23.928 76.9949 23.48C77.0909 23.384 77.2349 23.16 77.4269 22.808C77.6189 22.424 77.8109 21.992 78.0029 21.512C78.2269 21.032 78.4349 20.536 78.6269 20.024C78.8509 19.512 79.0109 19.08 79.1069 18.728C79.3629 17.992 79.5549 17.352 79.6829 16.808C79.8109 16.232 79.9069 15.72 79.9709 15.272C80.2269 15.112 80.4349 14.936 80.5949 14.744C80.7549 14.552 80.9149 14.392 81.0749 14.264C82.3869 13.496 83.5229 12.872 84.4829 12.392C85.4429 11.88 86.3389 11.56 87.1709 11.432L88.6109 11.336C88.7709 11.368 88.9149 11.4 89.0429 11.432C89.1709 11.464 89.2989 11.496 89.4269 11.528C89.6189 11.592 89.7949 11.64 89.9549 11.672C90.1149 11.672 90.2109 11.672 90.2429 11.672L91.2029 13.16C91.2029 13.448 91.1389 13.688 91.0109 13.88C90.8829 14.04 91.0109 14.152 91.3949 14.216C91.8109 14.312 92.0349 14.376 92.0669 14.408V14.456C92.5789 14.456 93.1069 14.344 93.6509 14.12C94.1949 13.864 94.7389 13.736 95.2829 13.736C95.4109 13.736 95.6349 13.8 95.9549 13.928C96.2749 14.024 96.6109 14.152 96.9629 14.312C97.3149 14.472 97.6349 14.632 97.9229 14.792C98.2429 14.92 98.4669 15.016 98.5949 15.08C98.5309 15.56 98.5469 15.896 98.6429 16.088C98.7389 16.28 98.8669 16.424 99.0269 16.52C99.1869 16.584 99.3309 16.648 99.4589 16.712C99.6189 16.744 99.7149 16.84 99.7469 17ZM91.1549 29C91.6349 28.68 92.0989 27.656 92.5469 25.928C92.8029 25 93.0109 24.312 93.1709 23.864C93.3629 23.384 93.4589 22.936 93.4589 22.52C93.4589 21.816 93.2189 20.984 92.7389 20.024C92.4829 19.512 92.2909 19.08 92.1629 18.728C92.0349 18.376 91.9389 18.024 91.8749 17.672C91.6189 17.544 91.4749 17.352 91.4429 17.096C91.4429 16.808 91.3149 16.52 91.0589 16.232C90.7389 15.976 90.5469 15.88 90.4829 15.944C90.4189 16.008 90.3549 16.04 90.2909 16.04H89.8589C89.6029 16.04 89.2509 16.088 88.8029 16.184C88.3869 16.28 88.0509 16.504 87.7949 16.856C87.4109 17.272 87.0749 17.608 86.7869 17.864C86.5309 18.088 86.3869 18.232 86.3549 18.296C86.0349 18.904 85.7469 19.432 85.4909 19.88C85.2349 20.296 85.0269 20.632 84.8669 20.888L84.4349 21.896C84.2429 22.376 84.1629 23.016 84.1949 23.816C84.2589 23.944 84.3229 24.232 84.3869 24.68C84.4509 25.096 84.2589 25.544 83.8109 26.024C83.7149 26.12 83.6189 26.312 83.5229 26.6C83.4269 26.856 83.3629 27.16 83.3309 27.512C83.2989 27.864 83.3309 28.216 83.4269 28.568C83.5549 28.92 83.7949 29.224 84.1469 29.48C84.5949 29.8 85.0589 30.12 85.5389 30.44C86.0189 30.728 86.3229 30.872 86.4509 30.872H86.9789C87.1709 30.872 87.3469 30.92 87.5069 31.016L91.1549 29Z" fill="white"/>
</svg>
