<svg width="40" height="40" viewBox="0 0 40 40" fill="none" xmlns="http://www.w3.org/2000/svg">
<path d="M10.6667 20.6667L18.6667 27.3333L29.3333 14M20 39.3333C17.5487 39.3333 15.1213 38.8505 12.8566 37.9124C10.5918 36.9743 8.53403 35.5994 6.80067 33.866C5.06731 32.1326 3.69233 30.0748 2.75424 27.8101C1.81616 25.5453 1.33333 23.118 1.33333 20.6667C1.33333 18.2153 1.81616 15.788 2.75424 13.5232C3.69233 11.2585 5.06731 9.2007 6.80067 7.46734C8.53403 5.73398 10.5918 4.359 12.8566 3.42092C15.1213 2.48283 17.5487 2 20 2C24.9507 2 29.6986 3.96666 33.1993 7.46734C36.7 10.968 38.6667 15.716 38.6667 20.6667C38.6667 25.6174 36.7 30.3653 33.1993 33.866C29.6986 37.3667 24.9507 39.3333 20 39.3333Z" stroke="black"/>
</svg>
