<svg width="40" height="40" viewBox="0 0 40 40" fill="none" xmlns="http://www.w3.org/2000/svg">
<path fill-rule="evenodd" clip-rule="evenodd" d="M1 20.5C1 15.3283 3.05446 10.3684 6.71142 6.71142C10.3684 3.05446 15.3283 1 20.5 1C25.6717 1 30.6316 3.05446 34.2886 6.71142C37.9455 10.3684 40 15.3283 40 20.5C40 25.6717 37.9455 30.6316 34.2886 34.2886C30.6316 37.9455 25.6717 40 20.5 40C15.3283 40 10.3684 37.9455 6.71142 34.2886C3.05446 30.6316 1 25.6717 1 20.5ZM19.3872 28.846L30.614 14.8112L28.586 13.1888L19.0128 25.1514L12.232 19.5016L10.568 21.4984L19.3872 28.846Z" fill="black"/>
</svg>
