<svg width="33" height="33" viewBox="0 0 33 33" fill="none" xmlns="http://www.w3.org/2000/svg">
<path d="M26.1085 2.76649L30.2335 6.89149L27.0889 10.0375L22.9639 5.91249L26.1085 2.76649ZM11 22H15.125L25.1446 11.9804L21.0196 7.85537L11 17.875V22Z" fill="black"/>
<path d="M26.125 26.125H11.2172C11.1815 26.125 11.1444 26.1388 11.1086 26.1388C11.0633 26.1388 11.0179 26.1264 10.9711 26.125H6.875V6.875H16.2896L19.0396 4.125H6.875C5.35837 4.125 4.125 5.357 4.125 6.875V26.125C4.125 27.643 5.35837 28.875 6.875 28.875H26.125C26.8543 28.875 27.5538 28.5853 28.0695 28.0695C28.5853 27.5538 28.875 26.8543 28.875 26.125V14.2065L26.125 16.9565V26.125Z" fill="black"/>
</svg>
